<?xml version="1.0" encoding="UTF-8" standalone="no"?>
<!DOCTYPE svg PUBLIC "-//W3C//DTD SVG 1.1//EN"
 "http://www.w3.org/Graphics/SVG/1.1/DTD/svg11.dtd">
<!-- Generated by graphviz version 12.2.1 (20241206.2353)
 -->
<!-- Pages: 1 -->
<svg width="597pt" height="409pt"
 viewBox="0.00 0.00 597.29 409.25" xmlns="http://www.w3.org/2000/svg" xmlns:xlink="http://www.w3.org/1999/xlink">
<g id="graph0" class="graph" transform="scale(1 1) rotate(0) translate(4 405.25)">
<polygon fill="white" stroke="none" points="-4,4 -4,-405.25 593.29,-405.25 593.29,4 -4,4"/>
<g id="clust1" class="cluster">
<title>cluster_donors</title>
<polygon fill="none" stroke="black" points="48.25,-223 48.25,-354 581.29,-354 581.29,-223 48.25,-223"/>
<text text-anchor="middle" x="554.91" y="-230.2" font-family="Times New Roman,serif" font-size="14.00">donors</text>
</g>
<!-- b0 -->
<g id="node1" class="node">
<title>b0</title>
<polygon fill="white" stroke="none" points="16.88,-326.25 3.38,-326.25 3.38,-309.75 16.88,-309.75 16.88,-326.25"/>
<text text-anchor="middle" x="10.12" y="-312.95" font-family="Times New Roman,serif" font-size="14.00">b0</text>
</g>
<!-- z_0 -->
<g id="node6" class="node">
<title>z_0</title>
<ellipse fill="white" stroke="black" cx="83.25" cy="-301" rx="27" ry="18"/>
<text text-anchor="middle" x="83.25" y="-295.95" font-family="Times New Roman,serif" font-size="14.00">z_0</text>
</g>
<!-- b0&#45;&gt;z_0 -->
<g id="edge11" class="edge">
<title>b0&#45;&gt;z_0</title>
<path fill="none" stroke="black" d="M16.71,-316.67C23.31,-315.09 34.87,-312.32 46.46,-309.55"/>
<polygon fill="black" stroke="black" points="47.05,-313.01 55.96,-307.28 45.42,-306.2 47.05,-313.01"/>
</g>
<!-- rates -->
<g id="node2" class="node">
<title>rates</title>
<polygon fill="white" stroke="none" points="96,-84.25 70.5,-84.25 70.5,-67.75 96,-67.75 96,-84.25"/>
<text text-anchor="middle" x="83.25" y="-70.95" font-family="Times New Roman,serif" font-size="14.00">rates</text>
</g>
<!-- y_0 -->
<g id="node7" class="node">
<title>y_0</title>
<ellipse fill="gray" stroke="black" cx="173.25" cy="-274" rx="27" ry="18"/>
<text text-anchor="middle" x="173.25" y="-268.95" font-family="Times New Roman,serif" font-size="14.00">y_0</text>
</g>
<!-- rates&#45;&gt;y_0 -->
<g id="edge12" class="edge">
<title>rates&#45;&gt;y_0</title>
<path fill="none" stroke="black" d="M87.81,-84.01C99.87,-111.14 139.58,-200.48 159.95,-246.33"/>
<polygon fill="black" stroke="black" points="156.69,-247.62 163.95,-255.34 163.09,-244.78 156.69,-247.62"/>
</g>
<!-- y_1 -->
<g id="node9" class="node">
<title>y_1</title>
<ellipse fill="gray" stroke="black" cx="263.25" cy="-274" rx="27" ry="18"/>
<text text-anchor="middle" x="263.25" y="-268.95" font-family="Times New Roman,serif" font-size="14.00">y_1</text>
</g>
<!-- rates&#45;&gt;y_1 -->
<g id="edge15" class="edge">
<title>rates&#45;&gt;y_1</title>
<path fill="none" stroke="black" d="M91.45,-84.01C116.52,-111.89 200.64,-205.47 240.7,-250.03"/>
<polygon fill="black" stroke="black" points="238.01,-252.28 247.3,-257.37 243.22,-247.6 238.01,-252.28"/>
</g>
<!-- y_2 -->
<g id="node11" class="node">
<title>y_2</title>
<ellipse fill="gray" stroke="black" cx="355.08" cy="-274" rx="27" ry="18"/>
<text text-anchor="middle" x="355.08" y="-268.95" font-family="Times New Roman,serif" font-size="14.00">y_2</text>
</g>
<!-- rates&#45;&gt;y_2 -->
<g id="edge18" class="edge">
<title>rates&#45;&gt;y_2</title>
<path fill="none" stroke="black" d="M95.8,-81.8C117.08,-92.65 163.63,-117.16 200.25,-142 242.64,-170.76 251.56,-180.43 290.25,-214 304.02,-225.95 318.9,-239.87 330.82,-251.29"/>
<polygon fill="black" stroke="black" points="328.2,-253.63 337.83,-258.05 333.06,-248.59 328.2,-253.63"/>
</g>
<!-- y_13 -->
<g id="node13" class="node">
<title>y_13</title>
<ellipse fill="gray" stroke="black" cx="449.26" cy="-274" rx="29.34" ry="18"/>
<text text-anchor="middle" x="449.26" y="-268.95" font-family="Times New Roman,serif" font-size="14.00">y_13</text>
</g>
<!-- rates&#45;&gt;y_13 -->
<g id="edge21" class="edge">
<title>rates&#45;&gt;y_13</title>
<path fill="none" stroke="black" d="M95.78,-77.77C117.03,-81.27 163.52,-90.06 200.25,-105 287.76,-140.59 308.55,-155.04 383.91,-212 399.1,-223.48 414.51,-238.19 426.44,-250.41"/>
<polygon fill="black" stroke="black" points="423.6,-252.51 433.05,-257.3 428.65,-247.66 423.6,-252.51"/>
</g>
<!-- y_14 -->
<g id="node15" class="node">
<title>y_14</title>
<ellipse fill="gray" stroke="black" cx="543.94" cy="-301" rx="29.34" ry="18"/>
<text text-anchor="middle" x="543.94" y="-295.95" font-family="Times New Roman,serif" font-size="14.00">y_14</text>
</g>
<!-- rates&#45;&gt;y_14 -->
<g id="edge24" class="edge">
<title>rates&#45;&gt;y_14</title>
<path fill="none" stroke="black" d="M94.81,-67.87C121.37,-48.26 193.7,0 262.25,0 262.25,0 262.25,0 356.08,0 483.07,0 526.77,-195.77 538.93,-271.54"/>
<polygon fill="black" stroke="black" points="535.42,-271.77 540.39,-281.13 542.34,-270.71 535.42,-271.77"/>
</g>
<!-- W -->
<g id="node3" class="node">
<title>W</title>
<polygon fill="white" stroke="none" points="90,-401.25 76.5,-401.25 76.5,-384.75 90,-384.75 90,-401.25"/>
<text text-anchor="middle" x="83.25" y="-387.95" font-family="Times New Roman,serif" font-size="14.00">W</text>
</g>
<!-- z_1 -->
<g id="node8" class="node">
<title>z_1</title>
<ellipse fill="white" stroke="black" cx="173.25" cy="-328" rx="27" ry="18"/>
<text text-anchor="middle" x="173.25" y="-322.95" font-family="Times New Roman,serif" font-size="14.00">z_1</text>
</g>
<!-- W&#45;&gt;z_1 -->
<g id="edge13" class="edge">
<title>W&#45;&gt;z_1</title>
<path fill="none" stroke="black" d="M89.75,-388.93C100.68,-380.86 125.76,-362.34 145.42,-347.82"/>
<polygon fill="black" stroke="black" points="147.37,-350.73 153.33,-341.97 143.21,-345.1 147.37,-350.73"/>
</g>
<!-- z_2 -->
<g id="node10" class="node">
<title>z_2</title>
<ellipse fill="white" stroke="black" cx="263.25" cy="-328" rx="27" ry="18"/>
<text text-anchor="middle" x="263.25" y="-322.95" font-family="Times New Roman,serif" font-size="14.00">z_2</text>
</g>
<!-- W&#45;&gt;z_2 -->
<g id="edge16" class="edge">
<title>W&#45;&gt;z_2</title>
<path fill="none" stroke="black" d="M89.63,-391.43C106.26,-386.55 158.26,-370.98 200.25,-355 210.06,-351.27 220.57,-346.85 230.11,-342.68"/>
<polygon fill="black" stroke="black" points="231.26,-346 238.98,-338.75 228.42,-339.6 231.26,-346"/>
</g>
<!-- z_13 -->
<g id="node12" class="node">
<title>z_13</title>
<ellipse fill="white" stroke="black" cx="355.08" cy="-328" rx="28.83" ry="18"/>
<text text-anchor="middle" x="355.08" y="-322.95" font-family="Times New Roman,serif" font-size="14.00">z_13</text>
</g>
<!-- W&#45;&gt;z_13 -->
<g id="edge19" class="edge">
<title>W&#45;&gt;z_13</title>
<path fill="none" stroke="black" d="M89.61,-392.54C106.16,-391.07 157.97,-386.1 200.25,-378 240.8,-370.23 251.13,-368.19 290.25,-355 300.36,-351.59 311.12,-347.31 320.87,-343.16"/>
<polygon fill="black" stroke="black" points="322.2,-346.4 329.97,-339.2 319.4,-339.98 322.2,-346.4"/>
</g>
<!-- z_14 -->
<g id="node14" class="node">
<title>z_14</title>
<ellipse fill="white" stroke="black" cx="449.26" cy="-328" rx="28.83" ry="18"/>
<text text-anchor="middle" x="449.26" y="-322.95" font-family="Times New Roman,serif" font-size="14.00">z_14</text>
</g>
<!-- W&#45;&gt;z_14 -->
<g id="edge22" class="edge">
<title>W&#45;&gt;z_14</title>
<path fill="none" stroke="black" d="M89.72,-393.35C100.52,-394.03 125.35,-395.49 146.25,-396 170.24,-396.58 176.38,-398.49 200.25,-396 283.44,-387.32 304.37,-380.83 383.91,-355 394.24,-351.65 405.22,-347.33 415.13,-343.14"/>
<polygon fill="black" stroke="black" points="416.21,-346.49 423.99,-339.3 413.42,-340.07 416.21,-346.49"/>
</g>
<!-- b -->
<g id="node4" class="node">
<title>b</title>
<polygon fill="white" stroke="none" points="86.63,-206.25 79.88,-206.25 79.88,-189.75 86.63,-189.75 86.63,-206.25"/>
<text text-anchor="middle" x="83.25" y="-192.95" font-family="Times New Roman,serif" font-size="14.00">b</text>
</g>
<!-- b&#45;&gt;z_1 -->
<g id="edge14" class="edge">
<title>b&#45;&gt;z_1</title>
<path fill="none" stroke="black" d="M86.43,-199.25C91.3,-202.15 103.2,-209.78 110.25,-219 134.42,-250.62 124.1,-267.93 146.25,-301 147.16,-302.35 148.13,-303.7 149.16,-305.02"/>
<polygon fill="black" stroke="black" points="146.21,-306.97 155.4,-312.25 151.51,-302.39 146.21,-306.97"/>
</g>
<!-- b&#45;&gt;z_2 -->
<g id="edge17" class="edge">
<title>b&#45;&gt;z_2</title>
<path fill="none" stroke="black" d="M86.4,-198.42C98.75,-200.94 161.51,-214.95 200.25,-247 222.47,-265.39 218.17,-278.52 236.25,-301 237.29,-302.3 238.39,-303.61 239.52,-304.91"/>
<polygon fill="black" stroke="black" points="236.83,-307.16 246.16,-312.18 242,-302.44 236.83,-307.16"/>
</g>
<!-- b&#45;&gt;z_13 -->
<g id="edge20" class="edge">
<title>b&#45;&gt;z_13</title>
<path fill="none" stroke="black" d="M86.58,-197.86C104.57,-196.92 222.36,-192.99 290.25,-247 312.82,-264.96 307.79,-278.83 326.25,-301 327.46,-302.46 328.75,-303.92 330.07,-305.37"/>
<polygon fill="black" stroke="black" points="327.35,-307.6 336.83,-312.33 332.37,-302.72 327.35,-307.6"/>
</g>
<!-- b&#45;&gt;z_14 -->
<g id="edge23" class="edge">
<title>b&#45;&gt;z_14</title>
<path fill="none" stroke="black" d="M86.44,-197.64C108.05,-194.23 284.03,-169.35 383.91,-247 406.69,-264.7 401.36,-278.92 419.91,-301 421.15,-302.47 422.45,-303.94 423.8,-305.39"/>
<polygon fill="black" stroke="black" points="421.17,-307.71 430.68,-312.37 426.15,-302.79 421.17,-307.71"/>
</g>
<!-- W0 -->
<g id="node5" class="node">
<title>W0</title>
<polygon fill="white" stroke="none" points="20.25,-291.25 0,-291.25 0,-274.75 20.25,-274.75 20.25,-291.25"/>
<text text-anchor="middle" x="10.12" y="-277.95" font-family="Times New Roman,serif" font-size="14.00">W0</text>
</g>
<!-- W0&#45;&gt;z_0 -->
<g id="edge10" class="edge">
<title>W0&#45;&gt;z_0</title>
<path fill="none" stroke="black" d="M20.13,-285.28C26.92,-287 36.71,-289.48 46.52,-291.96"/>
<polygon fill="black" stroke="black" points="45.42,-295.29 55.97,-294.35 47.14,-288.5 45.42,-295.29"/>
</g>
<!-- z_0&#45;&gt;y_0 -->
<g id="edge1" class="edge">
<title>z_0&#45;&gt;y_0</title>
<path fill="none" stroke="black" d="M108.3,-293.62C117.22,-290.88 127.54,-287.72 137.24,-284.74"/>
<polygon fill="black" stroke="black" points="138.25,-288.09 146.79,-281.81 136.2,-281.4 138.25,-288.09"/>
</g>
<!-- z_0&#45;&gt;z_1 -->
<g id="edge2" class="edge">
<title>z_0&#45;&gt;z_1</title>
<path fill="none" stroke="black" d="M108.3,-308.38C117.22,-311.12 127.54,-314.28 137.24,-317.26"/>
<polygon fill="black" stroke="black" points="136.2,-320.6 146.79,-320.19 138.25,-313.91 136.2,-320.6"/>
</g>
<!-- z_1&#45;&gt;y_1 -->
<g id="edge3" class="edge">
<title>z_1&#45;&gt;y_1</title>
<path fill="none" stroke="black" d="M193.78,-316.02C205.4,-308.88 220.36,-299.7 233.33,-291.75"/>
<polygon fill="black" stroke="black" points="234.79,-294.96 241.48,-286.74 231.13,-288.99 234.79,-294.96"/>
</g>
<!-- z_1&#45;&gt;z_2 -->
<g id="edge4" class="edge">
<title>z_1&#45;&gt;z_2</title>
<path fill="none" stroke="black" d="M200.65,-328C208.14,-328 216.43,-328 224.45,-328"/>
<polygon fill="black" stroke="black" points="224.35,-331.5 234.35,-328 224.35,-324.5 224.35,-331.5"/>
</g>
<!-- z_2&#45;&gt;y_2 -->
<g id="edge5" class="edge">
<title>z_2&#45;&gt;y_2</title>
<path fill="none" stroke="black" d="M284.19,-316.02C296.05,-308.88 311.32,-299.7 324.56,-291.75"/>
<polygon fill="black" stroke="black" points="326.14,-294.88 332.9,-286.73 322.53,-288.88 326.14,-294.88"/>
</g>
<!-- z_2&#45;&gt;z_13 -->
<g id="edge6" class="edge">
<title>z_2&#45;&gt;z_13</title>
<path fill="none" stroke="black" d="M290.72,-328C298.16,-328 306.42,-328 314.45,-328"/>
<polygon fill="black" stroke="black" points="314.41,-331.5 324.41,-328 314.41,-324.5 314.41,-331.5"/>
</g>
<!-- z_13&#45;&gt;y_13 -->
<g id="edge7" class="edge">
<title>z_13&#45;&gt;y_13</title>
<path fill="none" stroke="black" d="M377,-315.75C388.93,-308.75 404.12,-299.86 417.4,-292.08"/>
<polygon fill="black" stroke="black" points="418.94,-295.23 425.8,-287.16 415.4,-289.19 418.94,-295.23"/>
</g>
<!-- z_13&#45;&gt;z_14 -->
<g id="edge8" class="edge">
<title>z_13&#45;&gt;z_14</title>
<path fill="none" stroke="black" d="M384.24,-328C391.94,-328 400.43,-328 408.64,-328"/>
<polygon fill="black" stroke="black" points="408.44,-331.5 418.44,-328 408.44,-324.5 408.44,-331.5"/>
</g>
<!-- z_14&#45;&gt;y_14 -->
<g id="edge9" class="edge">
<title>z_14&#45;&gt;y_14</title>
<path fill="none" stroke="black" d="M475.58,-320.62C485.03,-317.87 495.96,-314.69 506.22,-311.7"/>
<polygon fill="black" stroke="black" points="506.93,-315.14 515.55,-308.98 504.97,-308.42 506.93,-315.14"/>
</g>
</g>
</svg>
